<?xml version="1.0" encoding="UTF-8"?><svg id="instagram" xmlns="http://www.w3.org/2000/svg" width="80.89" height="80" viewBox="0 0 80.89 80"><defs><style>.cls-1{fill:#fff;stroke:#fff;stroke-miterlimit:10;}</style></defs><path class="cls-1" d="M40.22,22.07c-10.41,0-18.84,8.44-18.84,18.84s8.44,18.84,18.84,18.84,18.84-8.44,18.84-18.84-8.44-18.84-18.84-18.84ZM40.22,54.22c-7.35,0-13.3-5.96-13.3-13.3s5.96-13.3,13.3-13.3,13.3,5.96,13.3,13.3-5.96,13.3-13.3,13.3Z"/><circle class="cls-1" cx="61.51" cy="18.79" r="5.21"/><path class="cls-1" d="M59.19.92H21.7C10.25.92.96,10.2.96,21.66v36.68c0,11.46,9.29,20.75,20.75,20.75h37.48c11.46,0,20.75-9.29,20.75-20.75V21.66c0-11.46-9.29-20.75-20.75-20.75ZM73.08,59.91c0,7.47-6.06,13.52-13.52,13.52H21.16c-7.47,0-13.52-6.06-13.52-13.52V21.51c0-7.47,6.05-13.52,13.52-13.52h38.4c7.47,0,13.52,6.05,13.52,13.52v38.4Z"/></svg>